<?xml version="1.0" encoding="utf-8" standalone="no"?>
<!DOCTYPE svg PUBLIC "-//W3C//DTD SVG 1.1//EN"
  "http://www.w3.org/Graphics/SVG/1.1/DTD/svg11.dtd">
<svg xmlns:xlink="http://www.w3.org/1999/xlink" width="1152pt" height="576pt" viewBox="0 0 1152 576" xmlns="http://www.w3.org/2000/svg" version="1.1">
 <metadata>
  <rdf:RDF xmlns:dc="http://purl.org/dc/elements/1.1/" xmlns:cc="http://creativecommons.org/ns#" xmlns:rdf="http://www.w3.org/1999/02/22-rdf-syntax-ns#">
   <cc:Work>
    <dc:type rdf:resource="http://purl.org/dc/dcmitype/StillImage"/>
    <dc:date>2025-10-07T01:34:13.502595</dc:date>
    <dc:format>image/svg+xml</dc:format>
    <dc:creator>
     <cc:Agent>
      <dc:title>Matplotlib v3.10.6, https://matplotlib.org/</dc:title>
     </cc:Agent>
    </dc:creator>
   </cc:Work>
  </rdf:RDF>
 </metadata>
 <defs>
  <style type="text/css">*{stroke-linejoin: round; stroke-linecap: butt}</style>
 </defs>
 <g id="figure_1">
  <g id="patch_1">
   <path d="M 0 576 
L 1152 576 
L 1152 0 
L 0 0 
z
" style="fill: #ffffff"/>
  </g>
  <g id="axes_1">
   <g id="patch_2">
    <path d="M 62.03 489.481033 
L 1141.2 489.481033 
L 1141.2 10.8 
L 62.03 10.8 
z
" style="fill: #ffffff"/>
   </g>
   <g id="matplotlib.axis_1">
    <g id="xtick_1">
     <g id="line2d_1">
      <path d="M 111.083182 489.481033 
L 111.083182 10.8 
" clip-path="url(#p0f0d7cdd65)" style="fill: none; stroke: #b0b0b0; stroke-opacity: 0.3; stroke-width: 0.8; stroke-linecap: square"/>
     </g>
     <g id="line2d_2">
      <defs>
       <path id="m51f8257365" d="M 0 0 
L 0 3.5 
" style="stroke: #000000; stroke-width: 0.8"/>
      </defs>
      <g>
       <use xlink:href="#m51f8257365" x="111.083182" y="489.481033" style="stroke: #000000; stroke-width: 0.8"/>
      </g>
     </g>
     <g id="text_1">
      <!-- 2020-11 -->
      <g transform="translate(93.133387 545.365976) rotate(-45) scale(0.14 -0.14)">
       <defs>
        <path id="DejaVuSans-32" d="M 1228 531 
L 3431 531 
L 3431 0 
L 469 0 
L 469 531 
Q 828 903 1448 1529 
Q 2069 2156 2228 2338 
Q 2531 2678 2651 2914 
Q 2772 3150 2772 3378 
Q 2772 3750 2511 3984 
Q 2250 4219 1831 4219 
Q 1534 4219 1204 4116 
Q 875 4013 500 3803 
L 500 4441 
Q 881 4594 1212 4672 
Q 1544 4750 1819 4750 
Q 2544 4750 2975 4387 
Q 3406 4025 3406 3419 
Q 3406 3131 3298 2873 
Q 3191 2616 2906 2266 
Q 2828 2175 2409 1742 
Q 1991 1309 1228 531 
z
" transform="scale(0.015625)"/>
        <path id="DejaVuSans-30" d="M 2034 4250 
Q 1547 4250 1301 3770 
Q 1056 3291 1056 2328 
Q 1056 1369 1301 889 
Q 1547 409 2034 409 
Q 2525 409 2770 889 
Q 3016 1369 3016 2328 
Q 3016 3291 2770 3770 
Q 2525 4250 2034 4250 
z
M 2034 4750 
Q 2819 4750 3233 4129 
Q 3647 3509 3647 2328 
Q 3647 1150 3233 529 
Q 2819 -91 2034 -91 
Q 1250 -91 836 529 
Q 422 1150 422 2328 
Q 422 3509 836 4129 
Q 1250 4750 2034 4750 
z
" transform="scale(0.015625)"/>
        <path id="DejaVuSans-2d" d="M 313 2009 
L 1997 2009 
L 1997 1497 
L 313 1497 
L 313 2009 
z
" transform="scale(0.015625)"/>
        <path id="DejaVuSans-31" d="M 794 531 
L 1825 531 
L 1825 4091 
L 703 3866 
L 703 4441 
L 1819 4666 
L 2450 4666 
L 2450 531 
L 3481 531 
L 3481 0 
L 794 0 
L 794 531 
z
" transform="scale(0.015625)"/>
       </defs>
       <use xlink:href="#DejaVuSans-32"/>
       <use xlink:href="#DejaVuSans-30" transform="translate(63.623047 0)"/>
       <use xlink:href="#DejaVuSans-32" transform="translate(127.246094 0)"/>
       <use xlink:href="#DejaVuSans-30" transform="translate(190.869141 0)"/>
       <use xlink:href="#DejaVuSans-2d" transform="translate(254.492188 0)"/>
       <use xlink:href="#DejaVuSans-31" transform="translate(290.576172 0)"/>
       <use xlink:href="#DejaVuSans-31" transform="translate(354.199219 0)"/>
      </g>
     </g>
    </g>
    <g id="xtick_2">
     <g id="line2d_3">
      <path d="M 186.549615 489.481033 
L 186.549615 10.8 
" clip-path="url(#p0f0d7cdd65)" style="fill: none; stroke: #b0b0b0; stroke-opacity: 0.3; stroke-width: 0.8; stroke-linecap: square"/>
     </g>
     <g id="line2d_4">
      <g>
       <use xlink:href="#m51f8257365" x="186.549615" y="489.481033" style="stroke: #000000; stroke-width: 0.8"/>
      </g>
     </g>
     <g id="text_2">
      <!-- 2021-02 -->
      <g transform="translate(168.59982 545.365976) rotate(-45) scale(0.14 -0.14)">
       <use xlink:href="#DejaVuSans-32"/>
       <use xlink:href="#DejaVuSans-30" transform="translate(63.623047 0)"/>
       <use xlink:href="#DejaVuSans-32" transform="translate(127.246094 0)"/>
       <use xlink:href="#DejaVuSans-31" transform="translate(190.869141 0)"/>
       <use xlink:href="#DejaVuSans-2d" transform="translate(254.492188 0)"/>
       <use xlink:href="#DejaVuSans-30" transform="translate(290.576172 0)"/>
       <use xlink:href="#DejaVuSans-32" transform="translate(354.199219 0)"/>
      </g>
     </g>
    </g>
    <g id="xtick_3">
     <g id="line2d_5">
      <path d="M 262.016049 489.481033 
L 262.016049 10.8 
" clip-path="url(#p0f0d7cdd65)" style="fill: none; stroke: #b0b0b0; stroke-opacity: 0.3; stroke-width: 0.8; stroke-linecap: square"/>
     </g>
     <g id="line2d_6">
      <g>
       <use xlink:href="#m51f8257365" x="262.016049" y="489.481033" style="stroke: #000000; stroke-width: 0.8"/>
      </g>
     </g>
     <g id="text_3">
      <!-- 2021-05 -->
      <g transform="translate(244.066254 545.365976) rotate(-45) scale(0.14 -0.14)">
       <defs>
        <path id="DejaVuSans-35" d="M 691 4666 
L 3169 4666 
L 3169 4134 
L 1269 4134 
L 1269 2991 
Q 1406 3038 1543 3061 
Q 1681 3084 1819 3084 
Q 2600 3084 3056 2656 
Q 3513 2228 3513 1497 
Q 3513 744 3044 326 
Q 2575 -91 1722 -91 
Q 1428 -91 1123 -41 
Q 819 9 494 109 
L 494 744 
Q 775 591 1075 516 
Q 1375 441 1709 441 
Q 2250 441 2565 725 
Q 2881 1009 2881 1497 
Q 2881 1984 2565 2268 
Q 2250 2553 1709 2553 
Q 1456 2553 1204 2497 
Q 953 2441 691 2322 
L 691 4666 
z
" transform="scale(0.015625)"/>
       </defs>
       <use xlink:href="#DejaVuSans-32"/>
       <use xlink:href="#DejaVuSans-30" transform="translate(63.623047 0)"/>
       <use xlink:href="#DejaVuSans-32" transform="translate(127.246094 0)"/>
       <use xlink:href="#DejaVuSans-31" transform="translate(190.869141 0)"/>
       <use xlink:href="#DejaVuSans-2d" transform="translate(254.492188 0)"/>
       <use xlink:href="#DejaVuSans-30" transform="translate(290.576172 0)"/>
       <use xlink:href="#DejaVuSans-35" transform="translate(354.199219 0)"/>
      </g>
     </g>
    </g>
    <g id="xtick_4">
     <g id="line2d_7">
      <path d="M 337.482483 489.481033 
L 337.482483 10.8 
" clip-path="url(#p0f0d7cdd65)" style="fill: none; stroke: #b0b0b0; stroke-opacity: 0.3; stroke-width: 0.8; stroke-linecap: square"/>
     </g>
     <g id="line2d_8">
      <g>
       <use xlink:href="#m51f8257365" x="337.482483" y="489.481033" style="stroke: #000000; stroke-width: 0.8"/>
      </g>
     </g>
     <g id="text_4">
      <!-- 2021-08 -->
      <g transform="translate(319.532687 545.365976) rotate(-45) scale(0.14 -0.14)">
       <defs>
        <path id="DejaVuSans-38" d="M 2034 2216 
Q 1584 2216 1326 1975 
Q 1069 1734 1069 1313 
Q 1069 891 1326 650 
Q 1584 409 2034 409 
Q 2484 409 2743 651 
Q 3003 894 3003 1313 
Q 3003 1734 2745 1975 
Q 2488 2216 2034 2216 
z
M 1403 2484 
Q 997 2584 770 2862 
Q 544 3141 544 3541 
Q 544 4100 942 4425 
Q 1341 4750 2034 4750 
Q 2731 4750 3128 4425 
Q 3525 4100 3525 3541 
Q 3525 3141 3298 2862 
Q 3072 2584 2669 2484 
Q 3125 2378 3379 2068 
Q 3634 1759 3634 1313 
Q 3634 634 3220 271 
Q 2806 -91 2034 -91 
Q 1263 -91 848 271 
Q 434 634 434 1313 
Q 434 1759 690 2068 
Q 947 2378 1403 2484 
z
M 1172 3481 
Q 1172 3119 1398 2916 
Q 1625 2713 2034 2713 
Q 2441 2713 2670 2916 
Q 2900 3119 2900 3481 
Q 2900 3844 2670 4047 
Q 2441 4250 2034 4250 
Q 1625 4250 1398 4047 
Q 1172 3844 1172 3481 
z
" transform="scale(0.015625)"/>
       </defs>
       <use xlink:href="#DejaVuSans-32"/>
       <use xlink:href="#DejaVuSans-30" transform="translate(63.623047 0)"/>
       <use xlink:href="#DejaVuSans-32" transform="translate(127.246094 0)"/>
       <use xlink:href="#DejaVuSans-31" transform="translate(190.869141 0)"/>
       <use xlink:href="#DejaVuSans-2d" transform="translate(254.492188 0)"/>
       <use xlink:href="#DejaVuSans-30" transform="translate(290.576172 0)"/>
       <use xlink:href="#DejaVuSans-38" transform="translate(354.199219 0)"/>
      </g>
     </g>
    </g>
    <g id="xtick_5">
     <g id="line2d_9">
      <path d="M 412.948916 489.481033 
L 412.948916 10.8 
" clip-path="url(#p0f0d7cdd65)" style="fill: none; stroke: #b0b0b0; stroke-opacity: 0.3; stroke-width: 0.8; stroke-linecap: square"/>
     </g>
     <g id="line2d_10">
      <g>
       <use xlink:href="#m51f8257365" x="412.948916" y="489.481033" style="stroke: #000000; stroke-width: 0.8"/>
      </g>
     </g>
     <g id="text_5">
      <!-- 2021-11 -->
      <g transform="translate(394.999121 545.365976) rotate(-45) scale(0.14 -0.14)">
       <use xlink:href="#DejaVuSans-32"/>
       <use xlink:href="#DejaVuSans-30" transform="translate(63.623047 0)"/>
       <use xlink:href="#DejaVuSans-32" transform="translate(127.246094 0)"/>
       <use xlink:href="#DejaVuSans-31" transform="translate(190.869141 0)"/>
       <use xlink:href="#DejaVuSans-2d" transform="translate(254.492188 0)"/>
       <use xlink:href="#DejaVuSans-31" transform="translate(290.576172 0)"/>
       <use xlink:href="#DejaVuSans-31" transform="translate(354.199219 0)"/>
      </g>
     </g>
    </g>
    <g id="xtick_6">
     <g id="line2d_11">
      <path d="M 488.41535 489.481033 
L 488.41535 10.8 
" clip-path="url(#p0f0d7cdd65)" style="fill: none; stroke: #b0b0b0; stroke-opacity: 0.3; stroke-width: 0.8; stroke-linecap: square"/>
     </g>
     <g id="line2d_12">
      <g>
       <use xlink:href="#m51f8257365" x="488.41535" y="489.481033" style="stroke: #000000; stroke-width: 0.8"/>
      </g>
     </g>
     <g id="text_6">
      <!-- 2022-02 -->
      <g transform="translate(470.465554 545.365976) rotate(-45) scale(0.14 -0.14)">
       <use xlink:href="#DejaVuSans-32"/>
       <use xlink:href="#DejaVuSans-30" transform="translate(63.623047 0)"/>
       <use xlink:href="#DejaVuSans-32" transform="translate(127.246094 0)"/>
       <use xlink:href="#DejaVuSans-32" transform="translate(190.869141 0)"/>
       <use xlink:href="#DejaVuSans-2d" transform="translate(254.492188 0)"/>
       <use xlink:href="#DejaVuSans-30" transform="translate(290.576172 0)"/>
       <use xlink:href="#DejaVuSans-32" transform="translate(354.199219 0)"/>
      </g>
     </g>
    </g>
    <g id="xtick_7">
     <g id="line2d_13">
      <path d="M 563.881783 489.481033 
L 563.881783 10.8 
" clip-path="url(#p0f0d7cdd65)" style="fill: none; stroke: #b0b0b0; stroke-opacity: 0.3; stroke-width: 0.8; stroke-linecap: square"/>
     </g>
     <g id="line2d_14">
      <g>
       <use xlink:href="#m51f8257365" x="563.881783" y="489.481033" style="stroke: #000000; stroke-width: 0.8"/>
      </g>
     </g>
     <g id="text_7">
      <!-- 2022-05 -->
      <g transform="translate(545.931988 545.365976) rotate(-45) scale(0.14 -0.14)">
       <use xlink:href="#DejaVuSans-32"/>
       <use xlink:href="#DejaVuSans-30" transform="translate(63.623047 0)"/>
       <use xlink:href="#DejaVuSans-32" transform="translate(127.246094 0)"/>
       <use xlink:href="#DejaVuSans-32" transform="translate(190.869141 0)"/>
       <use xlink:href="#DejaVuSans-2d" transform="translate(254.492188 0)"/>
       <use xlink:href="#DejaVuSans-30" transform="translate(290.576172 0)"/>
       <use xlink:href="#DejaVuSans-35" transform="translate(354.199219 0)"/>
      </g>
     </g>
    </g>
    <g id="xtick_8">
     <g id="line2d_15">
      <path d="M 639.348217 489.481033 
L 639.348217 10.8 
" clip-path="url(#p0f0d7cdd65)" style="fill: none; stroke: #b0b0b0; stroke-opacity: 0.3; stroke-width: 0.8; stroke-linecap: square"/>
     </g>
     <g id="line2d_16">
      <g>
       <use xlink:href="#m51f8257365" x="639.348217" y="489.481033" style="stroke: #000000; stroke-width: 0.8"/>
      </g>
     </g>
     <g id="text_8">
      <!-- 2022-08 -->
      <g transform="translate(621.398422 545.365976) rotate(-45) scale(0.14 -0.14)">
       <use xlink:href="#DejaVuSans-32"/>
       <use xlink:href="#DejaVuSans-30" transform="translate(63.623047 0)"/>
       <use xlink:href="#DejaVuSans-32" transform="translate(127.246094 0)"/>
       <use xlink:href="#DejaVuSans-32" transform="translate(190.869141 0)"/>
       <use xlink:href="#DejaVuSans-2d" transform="translate(254.492188 0)"/>
       <use xlink:href="#DejaVuSans-30" transform="translate(290.576172 0)"/>
       <use xlink:href="#DejaVuSans-38" transform="translate(354.199219 0)"/>
      </g>
     </g>
    </g>
    <g id="xtick_9">
     <g id="line2d_17">
      <path d="M 714.81465 489.481033 
L 714.81465 10.8 
" clip-path="url(#p0f0d7cdd65)" style="fill: none; stroke: #b0b0b0; stroke-opacity: 0.3; stroke-width: 0.8; stroke-linecap: square"/>
     </g>
     <g id="line2d_18">
      <g>
       <use xlink:href="#m51f8257365" x="714.81465" y="489.481033" style="stroke: #000000; stroke-width: 0.8"/>
      </g>
     </g>
     <g id="text_9">
      <!-- 2022-11 -->
      <g transform="translate(696.864855 545.365976) rotate(-45) scale(0.14 -0.14)">
       <use xlink:href="#DejaVuSans-32"/>
       <use xlink:href="#DejaVuSans-30" transform="translate(63.623047 0)"/>
       <use xlink:href="#DejaVuSans-32" transform="translate(127.246094 0)"/>
       <use xlink:href="#DejaVuSans-32" transform="translate(190.869141 0)"/>
       <use xlink:href="#DejaVuSans-2d" transform="translate(254.492188 0)"/>
       <use xlink:href="#DejaVuSans-31" transform="translate(290.576172 0)"/>
       <use xlink:href="#DejaVuSans-31" transform="translate(354.199219 0)"/>
      </g>
     </g>
    </g>
    <g id="xtick_10">
     <g id="line2d_19">
      <path d="M 790.281084 489.481033 
L 790.281084 10.8 
" clip-path="url(#p0f0d7cdd65)" style="fill: none; stroke: #b0b0b0; stroke-opacity: 0.3; stroke-width: 0.8; stroke-linecap: square"/>
     </g>
     <g id="line2d_20">
      <g>
       <use xlink:href="#m51f8257365" x="790.281084" y="489.481033" style="stroke: #000000; stroke-width: 0.8"/>
      </g>
     </g>
     <g id="text_10">
      <!-- 2023-02 -->
      <g transform="translate(772.331289 545.365976) rotate(-45) scale(0.14 -0.14)">
       <defs>
        <path id="DejaVuSans-33" d="M 2597 2516 
Q 3050 2419 3304 2112 
Q 3559 1806 3559 1356 
Q 3559 666 3084 287 
Q 2609 -91 1734 -91 
Q 1441 -91 1130 -33 
Q 819 25 488 141 
L 488 750 
Q 750 597 1062 519 
Q 1375 441 1716 441 
Q 2309 441 2620 675 
Q 2931 909 2931 1356 
Q 2931 1769 2642 2001 
Q 2353 2234 1838 2234 
L 1294 2234 
L 1294 2753 
L 1863 2753 
Q 2328 2753 2575 2939 
Q 2822 3125 2822 3475 
Q 2822 3834 2567 4026 
Q 2313 4219 1838 4219 
Q 1578 4219 1281 4162 
Q 984 4106 628 3988 
L 628 4550 
Q 988 4650 1302 4700 
Q 1616 4750 1894 4750 
Q 2613 4750 3031 4423 
Q 3450 4097 3450 3541 
Q 3450 3153 3228 2886 
Q 3006 2619 2597 2516 
z
" transform="scale(0.015625)"/>
       </defs>
       <use xlink:href="#DejaVuSans-32"/>
       <use xlink:href="#DejaVuSans-30" transform="translate(63.623047 0)"/>
       <use xlink:href="#DejaVuSans-32" transform="translate(127.246094 0)"/>
       <use xlink:href="#DejaVuSans-33" transform="translate(190.869141 0)"/>
       <use xlink:href="#DejaVuSans-2d" transform="translate(254.492188 0)"/>
       <use xlink:href="#DejaVuSans-30" transform="translate(290.576172 0)"/>
       <use xlink:href="#DejaVuSans-32" transform="translate(354.199219 0)"/>
      </g>
     </g>
    </g>
    <g id="xtick_11">
     <g id="line2d_21">
      <path d="M 865.747517 489.481033 
L 865.747517 10.8 
" clip-path="url(#p0f0d7cdd65)" style="fill: none; stroke: #b0b0b0; stroke-opacity: 0.3; stroke-width: 0.8; stroke-linecap: square"/>
     </g>
     <g id="line2d_22">
      <g>
       <use xlink:href="#m51f8257365" x="865.747517" y="489.481033" style="stroke: #000000; stroke-width: 0.8"/>
      </g>
     </g>
     <g id="text_11">
      <!-- 2023-05 -->
      <g transform="translate(847.797722 545.365976) rotate(-45) scale(0.14 -0.14)">
       <use xlink:href="#DejaVuSans-32"/>
       <use xlink:href="#DejaVuSans-30" transform="translate(63.623047 0)"/>
       <use xlink:href="#DejaVuSans-32" transform="translate(127.246094 0)"/>
       <use xlink:href="#DejaVuSans-33" transform="translate(190.869141 0)"/>
       <use xlink:href="#DejaVuSans-2d" transform="translate(254.492188 0)"/>
       <use xlink:href="#DejaVuSans-30" transform="translate(290.576172 0)"/>
       <use xlink:href="#DejaVuSans-35" transform="translate(354.199219 0)"/>
      </g>
     </g>
    </g>
    <g id="xtick_12">
     <g id="line2d_23">
      <path d="M 941.213951 489.481033 
L 941.213951 10.8 
" clip-path="url(#p0f0d7cdd65)" style="fill: none; stroke: #b0b0b0; stroke-opacity: 0.3; stroke-width: 0.8; stroke-linecap: square"/>
     </g>
     <g id="line2d_24">
      <g>
       <use xlink:href="#m51f8257365" x="941.213951" y="489.481033" style="stroke: #000000; stroke-width: 0.8"/>
      </g>
     </g>
     <g id="text_12">
      <!-- 2023-08 -->
      <g transform="translate(923.264156 545.365976) rotate(-45) scale(0.14 -0.14)">
       <use xlink:href="#DejaVuSans-32"/>
       <use xlink:href="#DejaVuSans-30" transform="translate(63.623047 0)"/>
       <use xlink:href="#DejaVuSans-32" transform="translate(127.246094 0)"/>
       <use xlink:href="#DejaVuSans-33" transform="translate(190.869141 0)"/>
       <use xlink:href="#DejaVuSans-2d" transform="translate(254.492188 0)"/>
       <use xlink:href="#DejaVuSans-30" transform="translate(290.576172 0)"/>
       <use xlink:href="#DejaVuSans-38" transform="translate(354.199219 0)"/>
      </g>
     </g>
    </g>
    <g id="xtick_13">
     <g id="line2d_25">
      <path d="M 1016.680385 489.481033 
L 1016.680385 10.8 
" clip-path="url(#p0f0d7cdd65)" style="fill: none; stroke: #b0b0b0; stroke-opacity: 0.3; stroke-width: 0.8; stroke-linecap: square"/>
     </g>
     <g id="line2d_26">
      <g>
       <use xlink:href="#m51f8257365" x="1016.680385" y="489.481033" style="stroke: #000000; stroke-width: 0.8"/>
      </g>
     </g>
     <g id="text_13">
      <!-- 2023-11 -->
      <g transform="translate(998.730589 545.365976) rotate(-45) scale(0.14 -0.14)">
       <use xlink:href="#DejaVuSans-32"/>
       <use xlink:href="#DejaVuSans-30" transform="translate(63.623047 0)"/>
       <use xlink:href="#DejaVuSans-32" transform="translate(127.246094 0)"/>
       <use xlink:href="#DejaVuSans-33" transform="translate(190.869141 0)"/>
       <use xlink:href="#DejaVuSans-2d" transform="translate(254.492188 0)"/>
       <use xlink:href="#DejaVuSans-31" transform="translate(290.576172 0)"/>
       <use xlink:href="#DejaVuSans-31" transform="translate(354.199219 0)"/>
      </g>
     </g>
    </g>
    <g id="xtick_14">
     <g id="line2d_27">
      <path d="M 1092.146818 489.481033 
L 1092.146818 10.8 
" clip-path="url(#p0f0d7cdd65)" style="fill: none; stroke: #b0b0b0; stroke-opacity: 0.3; stroke-width: 0.8; stroke-linecap: square"/>
     </g>
     <g id="line2d_28">
      <g>
       <use xlink:href="#m51f8257365" x="1092.146818" y="489.481033" style="stroke: #000000; stroke-width: 0.8"/>
      </g>
     </g>
     <g id="text_14">
      <!-- 2024-02 -->
      <g transform="translate(1074.197023 545.365976) rotate(-45) scale(0.14 -0.14)">
       <defs>
        <path id="DejaVuSans-34" d="M 2419 4116 
L 825 1625 
L 2419 1625 
L 2419 4116 
z
M 2253 4666 
L 3047 4666 
L 3047 1625 
L 3713 1625 
L 3713 1100 
L 3047 1100 
L 3047 0 
L 2419 0 
L 2419 1100 
L 313 1100 
L 313 1709 
L 2253 4666 
z
" transform="scale(0.015625)"/>
       </defs>
       <use xlink:href="#DejaVuSans-32"/>
       <use xlink:href="#DejaVuSans-30" transform="translate(63.623047 0)"/>
       <use xlink:href="#DejaVuSans-32" transform="translate(127.246094 0)"/>
       <use xlink:href="#DejaVuSans-34" transform="translate(190.869141 0)"/>
       <use xlink:href="#DejaVuSans-2d" transform="translate(254.492188 0)"/>
       <use xlink:href="#DejaVuSans-30" transform="translate(290.576172 0)"/>
       <use xlink:href="#DejaVuSans-32" transform="translate(354.199219 0)"/>
      </g>
     </g>
    </g>
    <g id="text_15">
     <!-- Month -->
     <g transform="translate(579.675469 562.062574) scale(0.14 -0.14)">
      <defs>
       <path id="DejaVuSans-4d" d="M 628 4666 
L 1569 4666 
L 2759 1491 
L 3956 4666 
L 4897 4666 
L 4897 0 
L 4281 0 
L 4281 4097 
L 3078 897 
L 2444 897 
L 1241 4097 
L 1241 0 
L 628 0 
L 628 4666 
z
" transform="scale(0.015625)"/>
       <path id="DejaVuSans-6f" d="M 1959 3097 
Q 1497 3097 1228 2736 
Q 959 2375 959 1747 
Q 959 1119 1226 758 
Q 1494 397 1959 397 
Q 2419 397 2687 759 
Q 2956 1122 2956 1747 
Q 2956 2369 2687 2733 
Q 2419 3097 1959 3097 
z
M 1959 3584 
Q 2709 3584 3137 3096 
Q 3566 2609 3566 1747 
Q 3566 888 3137 398 
Q 2709 -91 1959 -91 
Q 1206 -91 779 398 
Q 353 888 353 1747 
Q 353 2609 779 3096 
Q 1206 3584 1959 3584 
z
" transform="scale(0.015625)"/>
       <path id="DejaVuSans-6e" d="M 3513 2113 
L 3513 0 
L 2938 0 
L 2938 2094 
Q 2938 2591 2744 2837 
Q 2550 3084 2163 3084 
Q 1697 3084 1428 2787 
Q 1159 2491 1159 1978 
L 1159 0 
L 581 0 
L 581 3500 
L 1159 3500 
L 1159 2956 
Q 1366 3272 1645 3428 
Q 1925 3584 2291 3584 
Q 2894 3584 3203 3211 
Q 3513 2838 3513 2113 
z
" transform="scale(0.015625)"/>
       <path id="DejaVuSans-74" d="M 1172 4494 
L 1172 3500 
L 2356 3500 
L 2356 3053 
L 1172 3053 
L 1172 1153 
Q 1172 725 1289 603 
Q 1406 481 1766 481 
L 2356 481 
L 2356 0 
L 1766 0 
Q 1100 0 847 248 
Q 594 497 594 1153 
L 594 3053 
L 172 3053 
L 172 3500 
L 594 3500 
L 594 4494 
L 1172 4494 
z
" transform="scale(0.015625)"/>
       <path id="DejaVuSans-68" d="M 3513 2113 
L 3513 0 
L 2938 0 
L 2938 2094 
Q 2938 2591 2744 2837 
Q 2550 3084 2163 3084 
Q 1697 3084 1428 2787 
Q 1159 2491 1159 1978 
L 1159 0 
L 581 0 
L 581 4863 
L 1159 4863 
L 1159 2956 
Q 1366 3272 1645 3428 
Q 1925 3584 2291 3584 
Q 2894 3584 3203 3211 
Q 3513 2838 3513 2113 
z
" transform="scale(0.015625)"/>
      </defs>
      <use xlink:href="#DejaVuSans-4d"/>
      <use xlink:href="#DejaVuSans-6f" transform="translate(86.279297 0)"/>
      <use xlink:href="#DejaVuSans-6e" transform="translate(147.460938 0)"/>
      <use xlink:href="#DejaVuSans-74" transform="translate(210.839844 0)"/>
      <use xlink:href="#DejaVuSans-68" transform="translate(250.048828 0)"/>
     </g>
    </g>
   </g>
   <g id="matplotlib.axis_2">
    <g id="ytick_1">
     <g id="line2d_29">
      <path d="M 62.03 467.722804 
L 1141.2 467.722804 
" clip-path="url(#p0f0d7cdd65)" style="fill: none; stroke: #b0b0b0; stroke-opacity: 0.3; stroke-width: 0.8; stroke-linecap: square"/>
     </g>
     <g id="line2d_30">
      <defs>
       <path id="m826270970a" d="M 0 0 
L -3.5 0 
" style="stroke: #000000; stroke-width: 0.8"/>
      </defs>
      <g>
       <use xlink:href="#m826270970a" x="62.03" y="467.722804" style="stroke: #000000; stroke-width: 0.8"/>
      </g>
     </g>
     <g id="text_16">
      <!-- 0 -->
      <g transform="translate(46.1225 473.04171) scale(0.14 -0.14)">
       <use xlink:href="#DejaVuSans-30"/>
      </g>
     </g>
    </g>
    <g id="ytick_2">
     <g id="line2d_31">
      <path d="M 62.03 368.901952 
L 1141.2 368.901952 
" clip-path="url(#p0f0d7cdd65)" style="fill: none; stroke: #b0b0b0; stroke-opacity: 0.3; stroke-width: 0.8; stroke-linecap: square"/>
     </g>
     <g id="line2d_32">
      <g>
       <use xlink:href="#m826270970a" x="62.03" y="368.901952" style="stroke: #000000; stroke-width: 0.8"/>
      </g>
     </g>
     <g id="text_17">
      <!-- 200 -->
      <g transform="translate(28.3075 374.220858) scale(0.14 -0.14)">
       <use xlink:href="#DejaVuSans-32"/>
       <use xlink:href="#DejaVuSans-30" transform="translate(63.623047 0)"/>
       <use xlink:href="#DejaVuSans-30" transform="translate(127.246094 0)"/>
      </g>
     </g>
    </g>
    <g id="ytick_3">
     <g id="line2d_33">
      <path d="M 62.03 270.0811 
L 1141.2 270.0811 
" clip-path="url(#p0f0d7cdd65)" style="fill: none; stroke: #b0b0b0; stroke-opacity: 0.3; stroke-width: 0.8; stroke-linecap: square"/>
     </g>
     <g id="line2d_34">
      <g>
       <use xlink:href="#m826270970a" x="62.03" y="270.0811" style="stroke: #000000; stroke-width: 0.8"/>
      </g>
     </g>
     <g id="text_18">
      <!-- 400 -->
      <g transform="translate(28.3075 275.400006) scale(0.14 -0.14)">
       <use xlink:href="#DejaVuSans-34"/>
       <use xlink:href="#DejaVuSans-30" transform="translate(63.623047 0)"/>
       <use xlink:href="#DejaVuSans-30" transform="translate(127.246094 0)"/>
      </g>
     </g>
    </g>
    <g id="ytick_4">
     <g id="line2d_35">
      <path d="M 62.03 171.260248 
L 1141.2 171.260248 
" clip-path="url(#p0f0d7cdd65)" style="fill: none; stroke: #b0b0b0; stroke-opacity: 0.3; stroke-width: 0.8; stroke-linecap: square"/>
     </g>
     <g id="line2d_36">
      <g>
       <use xlink:href="#m826270970a" x="62.03" y="171.260248" style="stroke: #000000; stroke-width: 0.8"/>
      </g>
     </g>
     <g id="text_19">
      <!-- 600 -->
      <g transform="translate(28.3075 176.579154) scale(0.14 -0.14)">
       <defs>
        <path id="DejaVuSans-36" d="M 2113 2584 
Q 1688 2584 1439 2293 
Q 1191 2003 1191 1497 
Q 1191 994 1439 701 
Q 1688 409 2113 409 
Q 2538 409 2786 701 
Q 3034 994 3034 1497 
Q 3034 2003 2786 2293 
Q 2538 2584 2113 2584 
z
M 3366 4563 
L 3366 3988 
Q 3128 4100 2886 4159 
Q 2644 4219 2406 4219 
Q 1781 4219 1451 3797 
Q 1122 3375 1075 2522 
Q 1259 2794 1537 2939 
Q 1816 3084 2150 3084 
Q 2853 3084 3261 2657 
Q 3669 2231 3669 1497 
Q 3669 778 3244 343 
Q 2819 -91 2113 -91 
Q 1303 -91 875 529 
Q 447 1150 447 2328 
Q 447 3434 972 4092 
Q 1497 4750 2381 4750 
Q 2619 4750 2861 4703 
Q 3103 4656 3366 4563 
z
" transform="scale(0.015625)"/>
       </defs>
       <use xlink:href="#DejaVuSans-36"/>
       <use xlink:href="#DejaVuSans-30" transform="translate(63.623047 0)"/>
       <use xlink:href="#DejaVuSans-30" transform="translate(127.246094 0)"/>
      </g>
     </g>
    </g>
    <g id="ytick_5">
     <g id="line2d_37">
      <path d="M 62.03 72.439396 
L 1141.2 72.439396 
" clip-path="url(#p0f0d7cdd65)" style="fill: none; stroke: #b0b0b0; stroke-opacity: 0.3; stroke-width: 0.8; stroke-linecap: square"/>
     </g>
     <g id="line2d_38">
      <g>
       <use xlink:href="#m826270970a" x="62.03" y="72.439396" style="stroke: #000000; stroke-width: 0.8"/>
      </g>
     </g>
     <g id="text_20">
      <!-- 800 -->
      <g transform="translate(28.3075 77.758302) scale(0.14 -0.14)">
       <use xlink:href="#DejaVuSans-38"/>
       <use xlink:href="#DejaVuSans-30" transform="translate(63.623047 0)"/>
       <use xlink:href="#DejaVuSans-30" transform="translate(127.246094 0)"/>
      </g>
     </g>
    </g>
    <g id="text_21">
     <!-- Closed Issues (next month) -->
     <g transform="translate(21.395937 345.764891) rotate(-90) scale(0.14 -0.14)">
      <defs>
       <path id="DejaVuSans-43" d="M 4122 4306 
L 4122 3641 
Q 3803 3938 3442 4084 
Q 3081 4231 2675 4231 
Q 1875 4231 1450 3742 
Q 1025 3253 1025 2328 
Q 1025 1406 1450 917 
Q 1875 428 2675 428 
Q 3081 428 3442 575 
Q 3803 722 4122 1019 
L 4122 359 
Q 3791 134 3420 21 
Q 3050 -91 2638 -91 
Q 1578 -91 968 557 
Q 359 1206 359 2328 
Q 359 3453 968 4101 
Q 1578 4750 2638 4750 
Q 3056 4750 3426 4639 
Q 3797 4528 4122 4306 
z
" transform="scale(0.015625)"/>
       <path id="DejaVuSans-6c" d="M 603 4863 
L 1178 4863 
L 1178 0 
L 603 0 
L 603 4863 
z
" transform="scale(0.015625)"/>
       <path id="DejaVuSans-73" d="M 2834 3397 
L 2834 2853 
Q 2591 2978 2328 3040 
Q 2066 3103 1784 3103 
Q 1356 3103 1142 2972 
Q 928 2841 928 2578 
Q 928 2378 1081 2264 
Q 1234 2150 1697 2047 
L 1894 2003 
Q 2506 1872 2764 1633 
Q 3022 1394 3022 966 
Q 3022 478 2636 193 
Q 2250 -91 1575 -91 
Q 1294 -91 989 -36 
Q 684 19 347 128 
L 347 722 
Q 666 556 975 473 
Q 1284 391 1588 391 
Q 1994 391 2212 530 
Q 2431 669 2431 922 
Q 2431 1156 2273 1281 
Q 2116 1406 1581 1522 
L 1381 1569 
Q 847 1681 609 1914 
Q 372 2147 372 2553 
Q 372 3047 722 3315 
Q 1072 3584 1716 3584 
Q 2034 3584 2315 3537 
Q 2597 3491 2834 3397 
z
" transform="scale(0.015625)"/>
       <path id="DejaVuSans-65" d="M 3597 1894 
L 3597 1613 
L 953 1613 
Q 991 1019 1311 708 
Q 1631 397 2203 397 
Q 2534 397 2845 478 
Q 3156 559 3463 722 
L 3463 178 
Q 3153 47 2828 -22 
Q 2503 -91 2169 -91 
Q 1331 -91 842 396 
Q 353 884 353 1716 
Q 353 2575 817 3079 
Q 1281 3584 2069 3584 
Q 2775 3584 3186 3129 
Q 3597 2675 3597 1894 
z
M 3022 2063 
Q 3016 2534 2758 2815 
Q 2500 3097 2075 3097 
Q 1594 3097 1305 2825 
Q 1016 2553 972 2059 
L 3022 2063 
z
" transform="scale(0.015625)"/>
       <path id="DejaVuSans-64" d="M 2906 2969 
L 2906 4863 
L 3481 4863 
L 3481 0 
L 2906 0 
L 2906 525 
Q 2725 213 2448 61 
Q 2172 -91 1784 -91 
Q 1150 -91 751 415 
Q 353 922 353 1747 
Q 353 2572 751 3078 
Q 1150 3584 1784 3584 
Q 2172 3584 2448 3432 
Q 2725 3281 2906 2969 
z
M 947 1747 
Q 947 1113 1208 752 
Q 1469 391 1925 391 
Q 2381 391 2643 752 
Q 2906 1113 2906 1747 
Q 2906 2381 2643 2742 
Q 2381 3103 1925 3103 
Q 1469 3103 1208 2742 
Q 947 2381 947 1747 
z
" transform="scale(0.015625)"/>
       <path id="DejaVuSans-20" transform="scale(0.015625)"/>
       <path id="DejaVuSans-49" d="M 628 4666 
L 1259 4666 
L 1259 0 
L 628 0 
L 628 4666 
z
" transform="scale(0.015625)"/>
       <path id="DejaVuSans-75" d="M 544 1381 
L 544 3500 
L 1119 3500 
L 1119 1403 
Q 1119 906 1312 657 
Q 1506 409 1894 409 
Q 2359 409 2629 706 
Q 2900 1003 2900 1516 
L 2900 3500 
L 3475 3500 
L 3475 0 
L 2900 0 
L 2900 538 
Q 2691 219 2414 64 
Q 2138 -91 1772 -91 
Q 1169 -91 856 284 
Q 544 659 544 1381 
z
M 1991 3584 
L 1991 3584 
z
" transform="scale(0.015625)"/>
       <path id="DejaVuSans-28" d="M 1984 4856 
Q 1566 4138 1362 3434 
Q 1159 2731 1159 2009 
Q 1159 1288 1364 580 
Q 1569 -128 1984 -844 
L 1484 -844 
Q 1016 -109 783 600 
Q 550 1309 550 2009 
Q 550 2706 781 3412 
Q 1013 4119 1484 4856 
L 1984 4856 
z
" transform="scale(0.015625)"/>
       <path id="DejaVuSans-78" d="M 3513 3500 
L 2247 1797 
L 3578 0 
L 2900 0 
L 1881 1375 
L 863 0 
L 184 0 
L 1544 1831 
L 300 3500 
L 978 3500 
L 1906 2253 
L 2834 3500 
L 3513 3500 
z
" transform="scale(0.015625)"/>
       <path id="DejaVuSans-6d" d="M 3328 2828 
Q 3544 3216 3844 3400 
Q 4144 3584 4550 3584 
Q 5097 3584 5394 3201 
Q 5691 2819 5691 2113 
L 5691 0 
L 5113 0 
L 5113 2094 
Q 5113 2597 4934 2840 
Q 4756 3084 4391 3084 
Q 3944 3084 3684 2787 
Q 3425 2491 3425 1978 
L 3425 0 
L 2847 0 
L 2847 2094 
Q 2847 2600 2669 2842 
Q 2491 3084 2119 3084 
Q 1678 3084 1418 2786 
Q 1159 2488 1159 1978 
L 1159 0 
L 581 0 
L 581 3500 
L 1159 3500 
L 1159 2956 
Q 1356 3278 1631 3431 
Q 1906 3584 2284 3584 
Q 2666 3584 2933 3390 
Q 3200 3197 3328 2828 
z
" transform="scale(0.015625)"/>
       <path id="DejaVuSans-29" d="M 513 4856 
L 1013 4856 
Q 1481 4119 1714 3412 
Q 1947 2706 1947 2009 
Q 1947 1309 1714 600 
Q 1481 -109 1013 -844 
L 513 -844 
Q 928 -128 1133 580 
Q 1338 1288 1338 2009 
Q 1338 2731 1133 3434 
Q 928 4138 513 4856 
z
" transform="scale(0.015625)"/>
      </defs>
      <use xlink:href="#DejaVuSans-43"/>
      <use xlink:href="#DejaVuSans-6c" transform="translate(69.824219 0)"/>
      <use xlink:href="#DejaVuSans-6f" transform="translate(97.607422 0)"/>
      <use xlink:href="#DejaVuSans-73" transform="translate(158.789062 0)"/>
      <use xlink:href="#DejaVuSans-65" transform="translate(210.888672 0)"/>
      <use xlink:href="#DejaVuSans-64" transform="translate(272.412109 0)"/>
      <use xlink:href="#DejaVuSans-20" transform="translate(335.888672 0)"/>
      <use xlink:href="#DejaVuSans-49" transform="translate(367.675781 0)"/>
      <use xlink:href="#DejaVuSans-73" transform="translate(397.167969 0)"/>
      <use xlink:href="#DejaVuSans-73" transform="translate(449.267578 0)"/>
      <use xlink:href="#DejaVuSans-75" transform="translate(501.367188 0)"/>
      <use xlink:href="#DejaVuSans-65" transform="translate(564.746094 0)"/>
      <use xlink:href="#DejaVuSans-73" transform="translate(626.269531 0)"/>
      <use xlink:href="#DejaVuSans-20" transform="translate(678.369141 0)"/>
      <use xlink:href="#DejaVuSans-28" transform="translate(710.15625 0)"/>
      <use xlink:href="#DejaVuSans-6e" transform="translate(749.169922 0)"/>
      <use xlink:href="#DejaVuSans-65" transform="translate(812.548828 0)"/>
      <use xlink:href="#DejaVuSans-78" transform="translate(872.322266 0)"/>
      <use xlink:href="#DejaVuSans-74" transform="translate(931.501953 0)"/>
      <use xlink:href="#DejaVuSans-20" transform="translate(970.710938 0)"/>
      <use xlink:href="#DejaVuSans-6d" transform="translate(1002.498047 0)"/>
      <use xlink:href="#DejaVuSans-6f" transform="translate(1099.910156 0)"/>
      <use xlink:href="#DejaVuSans-6e" transform="translate(1161.091797 0)"/>
      <use xlink:href="#DejaVuSans-74" transform="translate(1224.470703 0)"/>
      <use xlink:href="#DejaVuSans-68" transform="translate(1263.679688 0)"/>
      <use xlink:href="#DejaVuSans-29" transform="translate(1327.058594 0)"/>
     </g>
    </g>
   </g>
   <g id="line2d_39">
    <path d="M 111.083182 271.069308 
L 136.23866 242.411261 
L 161.394138 268.598787 
L 186.549615 93.685879 
L 211.705093 241.423053 
L 236.860571 262.669536 
L 262.016049 230.058655 
L 287.171527 213.753214 
L 312.327005 259.70491 
L 337.482483 240.434844 
L 362.63796 241.917157 
L 387.793438 301.703773 
L 412.948916 265.140057 
L 438.104394 291.821687 
L 463.259872 308.621232 
L 488.41535 357.537554 
L 513.570828 340.243905 
L 538.726305 353.090616 
L 563.881783 351.608303 
L 589.037261 340.738009 
L 614.192739 378.784037 
L 639.348217 355.067033 
L 664.503695 362.972701 
L 689.659172 362.478596 
L 714.81465 358.525762 
L 739.970128 343.702635 
L 765.125606 370.878369 
L 790.281084 348.149573 
L 815.436562 359.019867 
L 840.59204 363.466805 
L 865.747517 364.455014 
L 890.902995 371.372473 
L 916.058473 394.595373 
L 941.213951 349.631886 
L 966.369429 355.561137 
L 991.524907 398.054103 
L 1016.680385 387.677914 
L 1041.835862 392.618956 
L 1066.99134 411.889022 
L 1092.146818 408.430293 
" clip-path="url(#p0f0d7cdd65)" style="fill: none; stroke: #1f77b4; stroke-width: 2; stroke-linecap: square"/>
   </g>
   <g id="line2d_40">
    <path d="M 111.083182 230.003108 
L 136.23866 237.18334 
L 161.394138 234.343525 
L 186.549615 225.035797 
L 211.705093 167.712754 
L 236.860571 180.712595 
L 262.016049 220.823095 
L 287.171527 220.253513 
L 312.327005 222.772617 
L 337.482483 245.755174 
L 362.63796 241.77932 
L 387.793438 251.86656 
L 412.948916 277.146464 
L 438.104394 268.03409 
L 463.259872 274.571443 
L 488.41535 245.368906 
L 513.570828 266.378731 
L 538.726305 274.839509 
L 563.881783 297.064625 
L 589.037261 303.856124 
L 614.192739 314.928001 
L 639.348217 322.702353 
L 664.503695 327.390047 
L 689.659172 331.778519 
L 714.81465 338.939249 
L 739.970128 343.96787 
L 765.125606 341.031553 
L 790.281084 311.210117 
L 815.436562 345.241497 
L 840.59204 332.214965 
L 865.747517 347.109378 
L 890.902995 346.04456 
L 916.058473 351.03219 
L 941.213951 356.789689 
L 966.369429 356.487379 
L 991.524907 348.022171 
L 1016.680385 348.283633 
L 1041.835862 368.870163 
L 1066.99134 370.471541 
L 1092.146818 374.986784 
" clip-path="url(#p0f0d7cdd65)" style="fill: none; stroke-dasharray: 5.55,2.4; stroke-dashoffset: 0; stroke: #ff7f0e; stroke-width: 1.5"/>
   </g>
   <g id="line2d_41">
    <path d="M 111.083182 252.293347 
L 136.23866 271.069308 
L 161.394138 242.411261 
L 186.549615 268.598787 
L 211.705093 93.685879 
L 236.860571 241.423053 
L 262.016049 262.669536 
L 287.171527 230.058655 
L 312.327005 213.753214 
L 337.482483 259.70491 
L 362.63796 240.434844 
L 387.793438 241.917157 
L 412.948916 301.703773 
L 438.104394 265.140057 
L 463.259872 291.821687 
L 488.41535 308.621232 
L 513.570828 357.537554 
L 538.726305 340.243905 
L 563.881783 353.090616 
L 589.037261 351.608303 
L 614.192739 340.738009 
L 639.348217 378.784037 
L 664.503695 355.067033 
L 689.659172 362.972701 
L 714.81465 362.478596 
L 739.970128 358.525762 
L 765.125606 343.702635 
L 790.281084 370.878369 
L 815.436562 348.149573 
L 840.59204 359.019867 
L 865.747517 363.466805 
L 890.902995 364.455014 
L 916.058473 371.372473 
L 941.213951 394.595373 
L 966.369429 349.631886 
L 991.524907 355.561137 
L 1016.680385 398.054103 
L 1041.835862 387.677914 
L 1066.99134 392.618956 
L 1092.146818 411.889022 
" clip-path="url(#p0f0d7cdd65)" style="fill: none; stroke-dasharray: 5.55,2.4; stroke-dashoffset: 0; stroke: #2ca02c; stroke-width: 1.5"/>
   </g>
   <g id="line2d_42">
    <path d="M 111.083182 273.786882 
L 136.23866 305.409554 
L 161.394138 264.645953 
L 186.549615 253.775659 
L 211.705093 230.552759 
L 236.860571 209.553328 
L 262.016049 200.165347 
L 287.171527 192.259679 
L 312.327005 206.094598 
L 337.482483 200.906504 
L 362.63796 237.470219 
L 387.793438 246.364095 
L 412.948916 272.881024 
L 438.104394 284.410123 
L 463.259872 265.963564 
L 488.41535 200.412399 
L 513.570828 234.17619 
L 538.726305 227.258731 
L 563.881783 210.129783 
L 589.037261 199.424191 
L 614.192739 223.964702 
L 639.348217 214.082617 
L 664.503695 238.952532 
L 689.659172 264.810654 
L 714.81465 270.945782 
L 739.970128 286.263014 
L 765.125606 276.627981 
L 790.281084 239.693688 
L 815.436562 260.693119 
L 840.59204 258.716702 
L 865.747517 245.499413 
L 890.902995 234.752645 
L 916.058473 262.669536 
L 941.213951 249.328721 
L 966.369429 269.957574 
L 991.524907 289.22764 
L 1016.680385 288.461778 
L 1041.835862 297.750938 
L 1066.99134 295.478059 
L 1092.146818 261.384865 
" clip-path="url(#p0f0d7cdd65)" style="fill: none; stroke-dasharray: 5.55,2.4; stroke-dashoffset: 0; stroke: #d62728; stroke-width: 1.5"/>
   </g>
   <g id="line2d_43">
    <path d="M 111.083182 232.13268 
L 136.23866 275.944007 
L 161.394138 251.458371 
L 186.549615 259.987821 
L 211.705093 176.37632 
L 236.860571 146.096924 
L 262.016049 234.018018 
L 287.171527 227.573222 
L 312.327005 221.093142 
L 337.482483 238.508278 
L 362.63796 236.401125 
L 387.793438 238.233001 
L 412.948916 265.619755 
L 438.104394 263.677641 
L 463.259872 277.777722 
L 488.41535 292.606924 
L 513.570828 325.174605 
L 538.726305 336.90581 
L 563.881783 345.485109 
L 589.037261 349.628293 
L 614.192739 345.697055 
L 639.348217 360.447148 
L 664.503695 360.997683 
L 689.659172 360.917413 
L 714.81465 361.99561 
L 739.970128 360.459897 
L 765.125606 352.312395 
L 790.281084 359.455796 
L 815.436562 356.246729 
L 840.59204 356.081473 
L 865.747517 359.99543 
L 890.902995 362.657694 
L 916.058473 366.985787 
L 941.213951 380.561329 
L 966.369429 368.986966 
L 991.524907 359.486061 
L 1016.680385 376.431313 
L 1041.835862 384.833059 
L 1066.99134 388.864543 
L 1092.146818 400.091479 
" clip-path="url(#p0f0d7cdd65)" style="fill: none; stroke-dasharray: 5.55,2.4; stroke-dashoffset: 0; stroke: #9467bd; stroke-width: 1.5"/>
   </g>
   <g id="line2d_44">
    <path d="M 111.083182 207.17031 
L 136.23866 245.865911 
L 161.394138 182.324993 
L 186.549615 115.805065 
L 211.705093 467.722804 
L 236.860571 32.558229 
L 262.016049 77.784517 
L 287.171527 294.147072 
L 312.327005 168.862268 
L 337.482483 204.954856 
L 362.63796 298.352152 
L 387.793438 269.667765 
L 412.948916 292.355792 
L 438.104394 294.949321 
L 463.259872 266.583277 
L 488.41535 227.575804 
L 513.570828 259.164213 
L 538.726305 275.726301 
L 563.881783 333.04401 
L 589.037261 323.065218 
L 614.192739 363.357032 
L 639.348217 372.443482 
L 664.503695 382.543947 
L 689.659172 397.476916 
L 714.81465 389.849091 
L 739.970128 363.385032 
L 765.125606 331.847712 
L 790.281084 268.740991 
L 815.436562 370.225897 
L 840.59204 384.038296 
L 865.747517 350.240519 
L 890.902995 354.248783 
L 916.058473 394.717933 
L 941.213951 379.779693 
L 966.369429 377.354635 
L 991.524907 382.776317 
L 1016.680385 377.631498 
L 1041.835862 390.08059 
L 1066.99134 390.492593 
L 1092.146818 368.486312 
" clip-path="url(#p0f0d7cdd65)" style="fill: none; stroke-dasharray: 5.55,2.4; stroke-dashoffset: 0; stroke: #8c564b; stroke-width: 1.5"/>
   </g>
   <g id="line2d_45">
    <path d="M 111.083182 202.267786 
L 136.23866 265.365414 
L 161.394138 206.012555 
L 186.549615 238.683306 
L 211.705093 167.060255 
L 236.860571 154.322309 
L 262.016049 155.738743 
L 287.171527 154.610162 
L 312.327005 222.92266 
L 337.482483 236.937414 
L 362.63796 283.760779 
L 387.793438 289.899544 
L 412.948916 301.029853 
L 438.104394 288.971413 
L 463.259872 271.411136 
L 488.41535 238.357727 
L 513.570828 306.160342 
L 538.726305 318.34228 
L 563.881783 322.293335 
L 589.037261 332.997884 
L 614.192739 373.684721 
L 639.348217 378.680626 
L 664.503695 409.443154 
L 689.659172 433.599978 
L 714.81465 418.597014 
L 739.970128 382.959099 
L 765.125606 354.008673 
L 790.281084 325.20615 
L 815.436562 357.059037 
L 840.59204 356.08721 
L 865.747517 346.307714 
L 890.902995 344.036426 
L 916.058473 385.090659 
L 941.213951 376.306825 
L 966.369429 384.245095 
L 991.524907 389.873431 
L 1016.680385 388.701788 
L 1041.835862 397.490248 
L 1066.99134 392.890216 
L 1092.146818 367.833813 
" clip-path="url(#p0f0d7cdd65)" style="fill: none; stroke-dasharray: 5.55,2.4; stroke-dashoffset: 0; stroke: #e377c2; stroke-width: 1.5"/>
   </g>
   <g id="line2d_46">
    <path d="M 111.083182 234.040147 
L 136.23866 239.539527 
L 161.394138 248.657727 
L 186.549615 256.261004 
L 211.705093 197.454691 
L 236.860571 152.295538 
L 262.016049 208.022593 
L 287.171527 204.384998 
L 312.327005 197.435915 
L 337.482483 192.610493 
L 362.63796 228.074332 
L 387.793438 240.137394 
L 412.948916 230.961877 
L 438.104394 249.514504 
L 463.259872 253.300331 
L 488.41535 247.20012 
L 513.570828 311.345723 
L 538.726305 317.396524 
L 563.881783 314.461545 
L 589.037261 335.600313 
L 614.192739 335.942233 
L 639.348217 348.695064 
L 664.503695 344.567317 
L 689.659172 290.381868 
L 714.81465 353.184495 
L 739.970128 330.318338 
L 765.125606 345.546632 
L 790.281084 326.312141 
L 815.436562 341.202467 
L 840.59204 348.704946 
L 865.747517 356.197543 
L 890.902995 361.904447 
L 916.058473 370.376359 
L 941.213951 369.493889 
L 966.369429 358.807402 
L 991.524907 357.064202 
L 1016.680385 356.002866 
L 1041.835862 368.476034 
L 1066.99134 379.884901 
L 1092.146818 384.59075 
" clip-path="url(#p0f0d7cdd65)" style="fill: none; stroke-dasharray: 5.55,2.4; stroke-dashoffset: 0; stroke: #7f7f7f; stroke-width: 1.5"/>
   </g>
   <g id="line2d_47">
    <path d="M 111.083182 242.636525 
L 136.23866 247.753779 
L 161.394138 246.553938 
L 186.549615 249.660411 
L 211.705093 218.32113 
L 236.860571 129.183519 
L 262.016049 192.258141 
L 287.171527 239.599189 
L 312.327005 126.530211 
L 337.482483 135.965902 
L 362.63796 224.627187 
L 387.793438 253.146373 
L 412.948916 188.49524 
L 438.104394 268.303724 
L 463.259872 243.589117 
L 488.41535 265.629487 
L 513.570828 323.598526 
L 538.726305 296.138721 
L 563.881783 340.199724 
L 589.037261 333.90487 
L 614.192739 342.449279 
L 639.348217 351.219449 
L 664.503695 321.637565 
L 689.659172 302.773754 
L 714.81465 358.54875 
L 739.970128 350.877272 
L 765.125606 346.183229 
L 790.281084 325.062503 
L 815.436562 343.92921 
L 840.59204 353.786113 
L 865.747517 361.149425 
L 890.902995 358.341235 
L 916.058473 373.316878 
L 941.213951 371.396946 
L 966.369429 362.464151 
L 991.524907 353.858786 
L 1016.680385 361.309728 
L 1041.835862 363.564177 
L 1066.99134 382.560252 
L 1092.146818 389.200758 
" clip-path="url(#p0f0d7cdd65)" style="fill: none; stroke-dasharray: 5.55,2.4; stroke-dashoffset: 0; stroke: #bcbd22; stroke-width: 1.5"/>
   </g>
   <g id="line2d_48">
    <path d="M 111.083182 235.082048 
L 136.23866 236.521539 
L 161.394138 236.748066 
L 186.549615 237.927723 
L 211.705093 232.776228 
L 236.860571 233.074395 
L 262.016049 234.060899 
L 287.171527 233.931795 
L 312.327005 233.301214 
L 337.482483 234.101326 
L 362.63796 234.287606 
L 387.793438 234.505593 
L 412.948916 236.372209 
L 438.104394 237.149719 
L 463.259872 238.588455 
L 488.41535 240.384167 
L 513.570828 265.387109 
L 538.726305 235.59576 
L 563.881783 260.489087 
L 589.037261 290.275762 
L 614.192739 311.934457 
L 639.348217 321.457873 
L 664.503695 332.994832 
L 689.659172 319.171085 
L 714.81465 337.202718 
L 739.970128 335.140759 
L 765.125606 347.200456 
L 790.281084 328.566115 
L 815.436562 331.04354 
L 840.59204 341.999643 
L 865.747517 337.582706 
L 890.902995 337.221053 
L 916.058473 360.787542 
L 941.213951 364.776063 
L 966.369429 366.42256 
L 991.524907 372.707364 
L 1016.680385 371.3565 
L 1041.835862 372.438888 
L 1066.99134 375.544403 
L 1092.146818 358.588897 
" clip-path="url(#p0f0d7cdd65)" style="fill: none; stroke-dasharray: 5.55,2.4; stroke-dashoffset: 0; stroke: #17becf; stroke-width: 1.5"/>
   </g>
   <g id="line2d_49">
    <path d="M 111.083182 205.718314 
L 136.23866 292.572905 
L 161.394138 283.23952 
L 186.549615 179.367288 
L 211.705093 186.877782 
L 236.860571 184.4924 
L 262.016049 203.909707 
L 287.171527 145.919225 
L 312.327005 224.822667 
L 337.482483 231.489154 
L 362.63796 261.907166 
L 387.793438 285.957379 
L 412.948916 301.046712 
L 438.104394 301.237406 
L 463.259872 302.755264 
L 488.41535 200.526524 
L 513.570828 261.383496 
L 538.726305 239.998899 
L 563.881783 218.071767 
L 589.037261 283.755564 
L 614.192739 250.044885 
L 639.348217 247.168713 
L 664.503695 380.002818 
L 689.659172 307.349553 
L 714.81465 391.590203 
L 739.970128 411.042987 
L 765.125606 377.842282 
L 790.281084 366.496389 
L 815.436562 357.690518 
L 840.59204 382.657414 
L 865.747517 348.103659 
L 890.902995 376.62571 
L 916.058473 382.150696 
L 941.213951 371.055495 
L 966.369429 431.847709 
L 991.524907 403.330922 
L 1016.680385 411.825725 
L 1041.835862 439.827597 
L 1066.99134 401.818987 
L 1092.146818 426.371603 
" clip-path="url(#p0f0d7cdd65)" style="fill: none; stroke-dasharray: 5.55,2.4; stroke-dashoffset: 0; stroke: #1f77b4; stroke-width: 1.5"/>
   </g>
   <g id="patch_3">
    <path d="M 62.03 489.481033 
L 62.03 10.8 
" style="fill: none; stroke: #000000; stroke-width: 0.8; stroke-linejoin: miter; stroke-linecap: square"/>
   </g>
   <g id="patch_4">
    <path d="M 1141.2 489.481033 
L 1141.2 10.8 
" style="fill: none; stroke: #000000; stroke-width: 0.8; stroke-linejoin: miter; stroke-linecap: square"/>
   </g>
   <g id="patch_5">
    <path d="M 62.03 489.481033 
L 1141.2 489.481033 
" style="fill: none; stroke: #000000; stroke-width: 0.8; stroke-linejoin: miter; stroke-linecap: square"/>
   </g>
   <g id="patch_6">
    <path d="M 62.03 10.8 
L 1141.2 10.8 
" style="fill: none; stroke: #000000; stroke-width: 0.8; stroke-linejoin: miter; stroke-linecap: square"/>
   </g>
   <g id="legend_1">
    <g id="patch_7">
     <path d="M 825.462812 145.29625 
L 1131.4 145.29625 
Q 1134.2 145.29625 1134.2 142.49625 
L 1134.2 20.6 
Q 1134.2 17.8 1131.4 17.8 
L 825.462812 17.8 
Q 822.662812 17.8 822.662812 20.6 
L 822.662812 142.49625 
Q 822.662812 145.29625 825.462812 145.29625 
z
" style="fill: #ffffff; opacity: 0.8; stroke: #cccccc; stroke-linejoin: miter"/>
    </g>
    <g id="line2d_50">
     <path d="M 828.262812 29.137813 
L 842.262812 29.137813 
L 856.262812 29.137813 
" style="fill: none; stroke: #1f77b4; stroke-width: 2; stroke-linecap: square"/>
    </g>
    <g id="text_22">
     <!-- Actual -->
     <g transform="translate(867.462813 34.037813) scale(0.14 -0.14)">
      <defs>
       <path id="DejaVuSans-41" d="M 2188 4044 
L 1331 1722 
L 3047 1722 
L 2188 4044 
z
M 1831 4666 
L 2547 4666 
L 4325 0 
L 3669 0 
L 3244 1197 
L 1141 1197 
L 716 0 
L 50 0 
L 1831 4666 
z
" transform="scale(0.015625)"/>
       <path id="DejaVuSans-63" d="M 3122 3366 
L 3122 2828 
Q 2878 2963 2633 3030 
Q 2388 3097 2138 3097 
Q 1578 3097 1268 2742 
Q 959 2388 959 1747 
Q 959 1106 1268 751 
Q 1578 397 2138 397 
Q 2388 397 2633 464 
Q 2878 531 3122 666 
L 3122 134 
Q 2881 22 2623 -34 
Q 2366 -91 2075 -91 
Q 1284 -91 818 406 
Q 353 903 353 1747 
Q 353 2603 823 3093 
Q 1294 3584 2113 3584 
Q 2378 3584 2631 3529 
Q 2884 3475 3122 3366 
z
" transform="scale(0.015625)"/>
       <path id="DejaVuSans-61" d="M 2194 1759 
Q 1497 1759 1228 1600 
Q 959 1441 959 1056 
Q 959 750 1161 570 
Q 1363 391 1709 391 
Q 2188 391 2477 730 
Q 2766 1069 2766 1631 
L 2766 1759 
L 2194 1759 
z
M 3341 1997 
L 3341 0 
L 2766 0 
L 2766 531 
Q 2569 213 2275 61 
Q 1981 -91 1556 -91 
Q 1019 -91 701 211 
Q 384 513 384 1019 
Q 384 1609 779 1909 
Q 1175 2209 1959 2209 
L 2766 2209 
L 2766 2266 
Q 2766 2663 2505 2880 
Q 2244 3097 1772 3097 
Q 1472 3097 1187 3025 
Q 903 2953 641 2809 
L 641 3341 
Q 956 3463 1253 3523 
Q 1550 3584 1831 3584 
Q 2591 3584 2966 3190 
Q 3341 2797 3341 1997 
z
" transform="scale(0.015625)"/>
      </defs>
      <use xlink:href="#DejaVuSans-41"/>
      <use xlink:href="#DejaVuSans-63" transform="translate(66.658203 0)"/>
      <use xlink:href="#DejaVuSans-74" transform="translate(121.638672 0)"/>
      <use xlink:href="#DejaVuSans-75" transform="translate(160.847656 0)"/>
      <use xlink:href="#DejaVuSans-61" transform="translate(224.226562 0)"/>
      <use xlink:href="#DejaVuSans-6c" transform="translate(285.505859 0)"/>
     </g>
    </g>
    <g id="line2d_51">
     <path d="M 828.262812 49.687188 
L 842.262812 49.687188 
L 856.262812 49.687188 
" style="fill: none; stroke-dasharray: 5.55,2.4; stroke-dashoffset: 0; stroke: #ff7f0e; stroke-width: 1.5"/>
    </g>
    <g id="text_23">
     <!-- Lasso Wf -->
     <g transform="translate(867.462813 54.587188) scale(0.14 -0.14)">
      <defs>
       <path id="DejaVuSans-4c" d="M 628 4666 
L 1259 4666 
L 1259 531 
L 3531 531 
L 3531 0 
L 628 0 
L 628 4666 
z
" transform="scale(0.015625)"/>
       <path id="DejaVuSans-57" d="M 213 4666 
L 850 4666 
L 1831 722 
L 2809 4666 
L 3519 4666 
L 4500 722 
L 5478 4666 
L 6119 4666 
L 4947 0 
L 4153 0 
L 3169 4050 
L 2175 0 
L 1381 0 
L 213 4666 
z
" transform="scale(0.015625)"/>
       <path id="DejaVuSans-66" d="M 2375 4863 
L 2375 4384 
L 1825 4384 
Q 1516 4384 1395 4259 
Q 1275 4134 1275 3809 
L 1275 3500 
L 2222 3500 
L 2222 3053 
L 1275 3053 
L 1275 0 
L 697 0 
L 697 3053 
L 147 3053 
L 147 3500 
L 697 3500 
L 697 3744 
Q 697 4328 969 4595 
Q 1241 4863 1831 4863 
L 2375 4863 
z
" transform="scale(0.015625)"/>
      </defs>
      <use xlink:href="#DejaVuSans-4c"/>
      <use xlink:href="#DejaVuSans-61" transform="translate(55.712891 0)"/>
      <use xlink:href="#DejaVuSans-73" transform="translate(116.992188 0)"/>
      <use xlink:href="#DejaVuSans-73" transform="translate(169.091797 0)"/>
      <use xlink:href="#DejaVuSans-6f" transform="translate(221.191406 0)"/>
      <use xlink:href="#DejaVuSans-20" transform="translate(282.373047 0)"/>
      <use xlink:href="#DejaVuSans-57" transform="translate(314.160156 0)"/>
      <use xlink:href="#DejaVuSans-66" transform="translate(413.037109 0)"/>
     </g>
    </g>
    <g id="line2d_52">
     <path d="M 828.262812 70.236563 
L 842.262812 70.236563 
L 856.262812 70.236563 
" style="fill: none; stroke-dasharray: 5.55,2.4; stroke-dashoffset: 0; stroke: #2ca02c; stroke-width: 1.5"/>
    </g>
    <g id="text_24">
     <!-- Naive Last -->
     <g transform="translate(867.462813 75.136563) scale(0.14 -0.14)">
      <defs>
       <path id="DejaVuSans-4e" d="M 628 4666 
L 1478 4666 
L 3547 763 
L 3547 4666 
L 4159 4666 
L 4159 0 
L 3309 0 
L 1241 3903 
L 1241 0 
L 628 0 
L 628 4666 
z
" transform="scale(0.015625)"/>
       <path id="DejaVuSans-69" d="M 603 3500 
L 1178 3500 
L 1178 0 
L 603 0 
L 603 3500 
z
M 603 4863 
L 1178 4863 
L 1178 4134 
L 603 4134 
L 603 4863 
z
" transform="scale(0.015625)"/>
       <path id="DejaVuSans-76" d="M 191 3500 
L 800 3500 
L 1894 563 
L 2988 3500 
L 3597 3500 
L 2284 0 
L 1503 0 
L 191 3500 
z
" transform="scale(0.015625)"/>
      </defs>
      <use xlink:href="#DejaVuSans-4e"/>
      <use xlink:href="#DejaVuSans-61" transform="translate(74.804688 0)"/>
      <use xlink:href="#DejaVuSans-69" transform="translate(136.083984 0)"/>
      <use xlink:href="#DejaVuSans-76" transform="translate(163.867188 0)"/>
      <use xlink:href="#DejaVuSans-65" transform="translate(223.046875 0)"/>
      <use xlink:href="#DejaVuSans-20" transform="translate(284.570312 0)"/>
      <use xlink:href="#DejaVuSans-4c" transform="translate(316.357422 0)"/>
      <use xlink:href="#DejaVuSans-61" transform="translate(372.070312 0)"/>
      <use xlink:href="#DejaVuSans-73" transform="translate(433.349609 0)"/>
      <use xlink:href="#DejaVuSans-74" transform="translate(485.449219 0)"/>
     </g>
    </g>
    <g id="line2d_53">
     <path d="M 828.262812 90.785938 
L 842.262812 90.785938 
L 856.262812 90.785938 
" style="fill: none; stroke-dasharray: 5.55,2.4; stroke-dashoffset: 0; stroke: #d62728; stroke-width: 1.5"/>
    </g>
    <g id="text_25">
     <!-- Naive Seasonal -->
     <g transform="translate(867.462813 95.685938) scale(0.14 -0.14)">
      <defs>
       <path id="DejaVuSans-53" d="M 3425 4513 
L 3425 3897 
Q 3066 4069 2747 4153 
Q 2428 4238 2131 4238 
Q 1616 4238 1336 4038 
Q 1056 3838 1056 3469 
Q 1056 3159 1242 3001 
Q 1428 2844 1947 2747 
L 2328 2669 
Q 3034 2534 3370 2195 
Q 3706 1856 3706 1288 
Q 3706 609 3251 259 
Q 2797 -91 1919 -91 
Q 1588 -91 1214 -16 
Q 841 59 441 206 
L 441 856 
Q 825 641 1194 531 
Q 1563 422 1919 422 
Q 2459 422 2753 634 
Q 3047 847 3047 1241 
Q 3047 1584 2836 1778 
Q 2625 1972 2144 2069 
L 1759 2144 
Q 1053 2284 737 2584 
Q 422 2884 422 3419 
Q 422 4038 858 4394 
Q 1294 4750 2059 4750 
Q 2388 4750 2728 4690 
Q 3069 4631 3425 4513 
z
" transform="scale(0.015625)"/>
      </defs>
      <use xlink:href="#DejaVuSans-4e"/>
      <use xlink:href="#DejaVuSans-61" transform="translate(74.804688 0)"/>
      <use xlink:href="#DejaVuSans-69" transform="translate(136.083984 0)"/>
      <use xlink:href="#DejaVuSans-76" transform="translate(163.867188 0)"/>
      <use xlink:href="#DejaVuSans-65" transform="translate(223.046875 0)"/>
      <use xlink:href="#DejaVuSans-20" transform="translate(284.570312 0)"/>
      <use xlink:href="#DejaVuSans-53" transform="translate(316.357422 0)"/>
      <use xlink:href="#DejaVuSans-65" transform="translate(379.833984 0)"/>
      <use xlink:href="#DejaVuSans-61" transform="translate(441.357422 0)"/>
      <use xlink:href="#DejaVuSans-73" transform="translate(502.636719 0)"/>
      <use xlink:href="#DejaVuSans-6f" transform="translate(554.736328 0)"/>
      <use xlink:href="#DejaVuSans-6e" transform="translate(615.917969 0)"/>
      <use xlink:href="#DejaVuSans-61" transform="translate(679.296875 0)"/>
      <use xlink:href="#DejaVuSans-6c" transform="translate(740.576172 0)"/>
     </g>
    </g>
    <g id="line2d_54">
     <path d="M 828.262812 111.335313 
L 842.262812 111.335313 
L 856.262812 111.335313 
" style="fill: none; stroke-dasharray: 5.55,2.4; stroke-dashoffset: 0; stroke: #9467bd; stroke-width: 1.5"/>
    </g>
    <g id="text_26">
     <!-- Arima -->
     <g transform="translate(867.462813 116.235313) scale(0.14 -0.14)">
      <defs>
       <path id="DejaVuSans-72" d="M 2631 2963 
Q 2534 3019 2420 3045 
Q 2306 3072 2169 3072 
Q 1681 3072 1420 2755 
Q 1159 2438 1159 1844 
L 1159 0 
L 581 0 
L 581 3500 
L 1159 3500 
L 1159 2956 
Q 1341 3275 1631 3429 
Q 1922 3584 2338 3584 
Q 2397 3584 2469 3576 
Q 2541 3569 2628 3553 
L 2631 2963 
z
" transform="scale(0.015625)"/>
      </defs>
      <use xlink:href="#DejaVuSans-41"/>
      <use xlink:href="#DejaVuSans-72" transform="translate(68.408203 0)"/>
      <use xlink:href="#DejaVuSans-69" transform="translate(109.521484 0)"/>
      <use xlink:href="#DejaVuSans-6d" transform="translate(137.304688 0)"/>
      <use xlink:href="#DejaVuSans-61" transform="translate(234.716797 0)"/>
     </g>
    </g>
    <g id="line2d_55">
     <path d="M 828.262812 131.884688 
L 842.262812 131.884688 
L 856.262812 131.884688 
" style="fill: none; stroke-dasharray: 5.55,2.4; stroke-dashoffset: 0; stroke: #8c564b; stroke-width: 1.5"/>
    </g>
    <g id="text_27">
     <!-- Sarimax -->
     <g transform="translate(867.462813 136.784688) scale(0.14 -0.14)">
      <use xlink:href="#DejaVuSans-53"/>
      <use xlink:href="#DejaVuSans-61" transform="translate(63.476562 0)"/>
      <use xlink:href="#DejaVuSans-72" transform="translate(124.755859 0)"/>
      <use xlink:href="#DejaVuSans-69" transform="translate(165.869141 0)"/>
      <use xlink:href="#DejaVuSans-6d" transform="translate(193.652344 0)"/>
      <use xlink:href="#DejaVuSans-61" transform="translate(291.064453 0)"/>
      <use xlink:href="#DejaVuSans-78" transform="translate(352.34375 0)"/>
     </g>
    </g>
    <g id="line2d_56">
     <path d="M 1003.0375 29.137813 
L 1017.0375 29.137813 
L 1031.0375 29.137813 
" style="fill: none; stroke-dasharray: 5.55,2.4; stroke-dashoffset: 0; stroke: #e377c2; stroke-width: 1.5"/>
    </g>
    <g id="text_28">
     <!-- Holt Winters -->
     <g transform="translate(1042.2375 34.037813) scale(0.14 -0.14)">
      <defs>
       <path id="DejaVuSans-48" d="M 628 4666 
L 1259 4666 
L 1259 2753 
L 3553 2753 
L 3553 4666 
L 4184 4666 
L 4184 0 
L 3553 0 
L 3553 2222 
L 1259 2222 
L 1259 0 
L 628 0 
L 628 4666 
z
" transform="scale(0.015625)"/>
      </defs>
      <use xlink:href="#DejaVuSans-48"/>
      <use xlink:href="#DejaVuSans-6f" transform="translate(75.195312 0)"/>
      <use xlink:href="#DejaVuSans-6c" transform="translate(136.376953 0)"/>
      <use xlink:href="#DejaVuSans-74" transform="translate(164.160156 0)"/>
      <use xlink:href="#DejaVuSans-20" transform="translate(203.369141 0)"/>
      <use xlink:href="#DejaVuSans-57" transform="translate(235.15625 0)"/>
      <use xlink:href="#DejaVuSans-69" transform="translate(331.783203 0)"/>
      <use xlink:href="#DejaVuSans-6e" transform="translate(359.566406 0)"/>
      <use xlink:href="#DejaVuSans-74" transform="translate(422.945312 0)"/>
      <use xlink:href="#DejaVuSans-65" transform="translate(462.154297 0)"/>
      <use xlink:href="#DejaVuSans-72" transform="translate(523.677734 0)"/>
      <use xlink:href="#DejaVuSans-73" transform="translate(564.791016 0)"/>
     </g>
    </g>
    <g id="line2d_57">
     <path d="M 1003.0375 49.687188 
L 1017.0375 49.687188 
L 1031.0375 49.687188 
" style="fill: none; stroke-dasharray: 5.55,2.4; stroke-dashoffset: 0; stroke: #7f7f7f; stroke-width: 1.5"/>
    </g>
    <g id="text_29">
     <!-- Rf Wf -->
     <g transform="translate(1042.2375 54.587188) scale(0.14 -0.14)">
      <defs>
       <path id="DejaVuSans-52" d="M 2841 2188 
Q 3044 2119 3236 1894 
Q 3428 1669 3622 1275 
L 4263 0 
L 3584 0 
L 2988 1197 
Q 2756 1666 2539 1819 
Q 2322 1972 1947 1972 
L 1259 1972 
L 1259 0 
L 628 0 
L 628 4666 
L 2053 4666 
Q 2853 4666 3247 4331 
Q 3641 3997 3641 3322 
Q 3641 2881 3436 2590 
Q 3231 2300 2841 2188 
z
M 1259 4147 
L 1259 2491 
L 2053 2491 
Q 2509 2491 2742 2702 
Q 2975 2913 2975 3322 
Q 2975 3731 2742 3939 
Q 2509 4147 2053 4147 
L 1259 4147 
z
" transform="scale(0.015625)"/>
      </defs>
      <use xlink:href="#DejaVuSans-52"/>
      <use xlink:href="#DejaVuSans-66" transform="translate(69.482422 0)"/>
      <use xlink:href="#DejaVuSans-20" transform="translate(104.6875 0)"/>
      <use xlink:href="#DejaVuSans-57" transform="translate(136.474609 0)"/>
      <use xlink:href="#DejaVuSans-66" transform="translate(235.351562 0)"/>
     </g>
    </g>
    <g id="line2d_58">
     <path d="M 1003.0375 70.236563 
L 1017.0375 70.236563 
L 1031.0375 70.236563 
" style="fill: none; stroke-dasharray: 5.55,2.4; stroke-dashoffset: 0; stroke: #bcbd22; stroke-width: 1.5"/>
    </g>
    <g id="text_30">
     <!-- Xgb Wf -->
     <g transform="translate(1042.2375 75.136563) scale(0.14 -0.14)">
      <defs>
       <path id="DejaVuSans-58" d="M 403 4666 
L 1081 4666 
L 2241 2931 
L 3406 4666 
L 4084 4666 
L 2584 2425 
L 4184 0 
L 3506 0 
L 2194 1984 
L 872 0 
L 191 0 
L 1856 2491 
L 403 4666 
z
" transform="scale(0.015625)"/>
       <path id="DejaVuSans-67" d="M 2906 1791 
Q 2906 2416 2648 2759 
Q 2391 3103 1925 3103 
Q 1463 3103 1205 2759 
Q 947 2416 947 1791 
Q 947 1169 1205 825 
Q 1463 481 1925 481 
Q 2391 481 2648 825 
Q 2906 1169 2906 1791 
z
M 3481 434 
Q 3481 -459 3084 -895 
Q 2688 -1331 1869 -1331 
Q 1566 -1331 1297 -1286 
Q 1028 -1241 775 -1147 
L 775 -588 
Q 1028 -725 1275 -790 
Q 1522 -856 1778 -856 
Q 2344 -856 2625 -561 
Q 2906 -266 2906 331 
L 2906 616 
Q 2728 306 2450 153 
Q 2172 0 1784 0 
Q 1141 0 747 490 
Q 353 981 353 1791 
Q 353 2603 747 3093 
Q 1141 3584 1784 3584 
Q 2172 3584 2450 3431 
Q 2728 3278 2906 2969 
L 2906 3500 
L 3481 3500 
L 3481 434 
z
" transform="scale(0.015625)"/>
       <path id="DejaVuSans-62" d="M 3116 1747 
Q 3116 2381 2855 2742 
Q 2594 3103 2138 3103 
Q 1681 3103 1420 2742 
Q 1159 2381 1159 1747 
Q 1159 1113 1420 752 
Q 1681 391 2138 391 
Q 2594 391 2855 752 
Q 3116 1113 3116 1747 
z
M 1159 2969 
Q 1341 3281 1617 3432 
Q 1894 3584 2278 3584 
Q 2916 3584 3314 3078 
Q 3713 2572 3713 1747 
Q 3713 922 3314 415 
Q 2916 -91 2278 -91 
Q 1894 -91 1617 61 
Q 1341 213 1159 525 
L 1159 0 
L 581 0 
L 581 4863 
L 1159 4863 
L 1159 2969 
z
" transform="scale(0.015625)"/>
      </defs>
      <use xlink:href="#DejaVuSans-58"/>
      <use xlink:href="#DejaVuSans-67" transform="translate(68.505859 0)"/>
      <use xlink:href="#DejaVuSans-62" transform="translate(131.982422 0)"/>
      <use xlink:href="#DejaVuSans-20" transform="translate(195.458984 0)"/>
      <use xlink:href="#DejaVuSans-57" transform="translate(227.246094 0)"/>
      <use xlink:href="#DejaVuSans-66" transform="translate(326.123047 0)"/>
     </g>
    </g>
    <g id="line2d_59">
     <path d="M 1003.0375 90.785938 
L 1017.0375 90.785938 
L 1031.0375 90.785938 
" style="fill: none; stroke-dasharray: 5.55,2.4; stroke-dashoffset: 0; stroke: #17becf; stroke-width: 1.5"/>
    </g>
    <g id="text_31">
     <!-- Lgbm Wf -->
     <g transform="translate(1042.2375 95.685938) scale(0.14 -0.14)">
      <use xlink:href="#DejaVuSans-4c"/>
      <use xlink:href="#DejaVuSans-67" transform="translate(55.712891 0)"/>
      <use xlink:href="#DejaVuSans-62" transform="translate(119.189453 0)"/>
      <use xlink:href="#DejaVuSans-6d" transform="translate(182.666016 0)"/>
      <use xlink:href="#DejaVuSans-20" transform="translate(280.078125 0)"/>
      <use xlink:href="#DejaVuSans-57" transform="translate(311.865234 0)"/>
      <use xlink:href="#DejaVuSans-66" transform="translate(410.742188 0)"/>
     </g>
    </g>
    <g id="line2d_60">
     <path d="M 1003.0375 111.335313 
L 1017.0375 111.335313 
L 1031.0375 111.335313 
" style="fill: none; stroke-dasharray: 5.55,2.4; stroke-dashoffset: 0; stroke: #1f77b4; stroke-width: 1.5"/>
    </g>
    <g id="text_32">
     <!-- Prophet -->
     <g transform="translate(1042.2375 116.235313) scale(0.14 -0.14)">
      <defs>
       <path id="DejaVuSans-50" d="M 1259 4147 
L 1259 2394 
L 2053 2394 
Q 2494 2394 2734 2622 
Q 2975 2850 2975 3272 
Q 2975 3691 2734 3919 
Q 2494 4147 2053 4147 
L 1259 4147 
z
M 628 4666 
L 2053 4666 
Q 2838 4666 3239 4311 
Q 3641 3956 3641 3272 
Q 3641 2581 3239 2228 
Q 2838 1875 2053 1875 
L 1259 1875 
L 1259 0 
L 628 0 
L 628 4666 
z
" transform="scale(0.015625)"/>
       <path id="DejaVuSans-70" d="M 1159 525 
L 1159 -1331 
L 581 -1331 
L 581 3500 
L 1159 3500 
L 1159 2969 
Q 1341 3281 1617 3432 
Q 1894 3584 2278 3584 
Q 2916 3584 3314 3078 
Q 3713 2572 3713 1747 
Q 3713 922 3314 415 
Q 2916 -91 2278 -91 
Q 1894 -91 1617 61 
Q 1341 213 1159 525 
z
M 3116 1747 
Q 3116 2381 2855 2742 
Q 2594 3103 2138 3103 
Q 1681 3103 1420 2742 
Q 1159 2381 1159 1747 
Q 1159 1113 1420 752 
Q 1681 391 2138 391 
Q 2594 391 2855 752 
Q 3116 1113 3116 1747 
z
" transform="scale(0.015625)"/>
      </defs>
      <use xlink:href="#DejaVuSans-50"/>
      <use xlink:href="#DejaVuSans-72" transform="translate(58.552734 0)"/>
      <use xlink:href="#DejaVuSans-6f" transform="translate(97.416016 0)"/>
      <use xlink:href="#DejaVuSans-70" transform="translate(158.597656 0)"/>
      <use xlink:href="#DejaVuSans-68" transform="translate(222.074219 0)"/>
      <use xlink:href="#DejaVuSans-65" transform="translate(285.453125 0)"/>
      <use xlink:href="#DejaVuSans-74" transform="translate(346.976562 0)"/>
     </g>
    </g>
   </g>
  </g>
 </g>
 <defs>
  <clipPath id="p0f0d7cdd65">
   <rect x="62.03" y="10.8" width="1079.17" height="478.681033"/>
  </clipPath>
 </defs>
</svg>
